<?xml version="1.0" standalone="no"?>
<!DOCTYPE svg PUBLIC "-//W3C//DTD SVG 20010904//EN"
 "http://www.w3.org/TR/2001/REC-SVG-20010904/DTD/svg10.dtd">
<svg version="1.0" xmlns="http://www.w3.org/2000/svg"
 width="200.000000pt" height="200.000000pt" viewBox="0 0 200.000000 200.000000"
 preserveAspectRatio="xMidYMid meet">

<g transform="translate(0.000000,200.000000) scale(0.100000,-0.100000)"
fill="#000000" stroke="none">
<path d="M205 1418 c-101 -37 -99 -38 87 -38 147 0 176 2 172 14 -3 9 -29 16
-72 20 -37 3 -87 8 -112 10 -25 3 -58 0 -75 -6z"/>
<path d="M1665 1413 c-11 -3 -29 -12 -40 -19 -17 -12 1 -14 138 -14 91 0 157
4 157 9 0 18 -21 23 -51 11 -22 -9 -32 -10 -43 -1 -15 13 -130 23 -161 14z"/>
<path d="M580 1395 c0 -13 33 -15 238 -15 218 1 234 2 197 15 -60 22 -435 22
-435 0z"/>
<path d="M1210 1395 c0 -13 21 -15 136 -15 104 0 135 3 132 13 -3 8 -42 13
-136 15 -113 2 -132 0 -132 -13z"/>
<path d="M83 1338 c-38 -18 -26 -28 33 -28 56 0 94 12 94 30 0 13 -99 11 -127
-2z"/>
<path d="M380 1340 c0 -17 28 -30 67 -30 45 0 56 13 24 29 -20 11 -91 12 -91
1z"/>
<path d="M647 1338 c-23 -15 17 -28 78 -26 46 2 60 7 60 18 0 12 -14 15 -63
15 -35 0 -69 -3 -75 -7z"/>
<path d="M960 1340 c-42 -5 -43 -6 -23 -18 12 -6 53 -12 92 -12 56 0 71 3 71
15 0 22 -44 27 -140 15z"/>
<path d="M1270 1328 c0 -15 9 -18 53 -18 64 0 99 9 94 24 -2 7 -31 11 -75 11
-62 0 -72 -2 -72 -17z"/>
<path d="M1573 1343 c-7 -2 -13 -11 -13 -19 0 -10 12 -14 38 -14 52 0 82 10
82 26 0 10 -13 14 -47 13 -27 0 -54 -3 -60 -6z"/>
<path d="M1810 1340 c0 -15 45 -30 91 -30 28 0 39 4 39 15 0 8 -3 15 -7 16
-73 8 -123 7 -123 -1z"/>
<path d="M30 1255 c0 -13 11 -15 62 -13 38 2 63 8 66 16 3 9 -14 12 -62 12
-53 0 -66 -3 -66 -15z"/>
<path d="M450 1255 c8 -9 24 -15 39 -13 40 5 31 23 -13 26 -36 3 -38 2 -26
-13z"/>
<path d="M652 1258 c3 -8 28 -14 66 -16 51 -2 62 0 62 13 0 12 -13 15 -66 15
-48 0 -65 -3 -62 -12z"/>
<path d="M972 1258 c3 -8 29 -14 70 -16 52 -2 67 0 71 13 5 13 -5 15 -69 15
-56 0 -75 -3 -72 -12z"/>
<path d="M1270 1255 c0 -13 11 -15 62 -13 38 2 63 8 66 16 3 9 -14 12 -62 12
-53 0 -66 -3 -66 -15z"/>
<path d="M1540 1255 c0 -12 14 -15 70 -15 39 0 70 4 70 9 0 14 -28 21 -86 21
-41 0 -54 -4 -54 -15z"/>
<path d="M1900 1255 c7 -8 18 -15 25 -15 7 0 18 7 25 15 11 13 7 15 -25 15
-32 0 -36 -2 -25 -15z"/>
<path d="M0 1190 c0 -18 7 -20 63 -20 34 0 68 4 76 9 28 18 -1 31 -70 31 -62
0 -69 -2 -69 -20z"/>
<path d="M655 1200 c-16 -26 14 -30 206 -30 191 0 239 6 239 30 0 16 -144 12
-176 -5 -39 -20 -133 -20 -140 0 -7 17 -119 22 -129 5z"/>
<path d="M1272 1193 c3 -15 13 -18 63 -18 47 0 60 3 60 15 0 11 -15 16 -63 18
-57 3 -63 1 -60 -15z"/>
<path d="M1550 1203 c0 -28 29 -33 200 -33 170 1 174 1 145 18 -24 13 -62 18
-187 20 -88 2 -158 0 -158 -5z"/>
<path d="M0 1123 c0 -9 20 -13 75 -13 43 0 75 4 75 10 0 10 -9 12 -97 14 -38
1 -53 -2 -53 -11z"/>
<path d="M656 1132 c-19 -18 12 -22 164 -20 105 2 170 7 170 13 0 11 -324 18
-334 7z"/>
<path d="M1298 1132 c-53 -7 -27 -22 38 -22 47 0 65 3 62 12 -4 12 -51 17
-100 10z"/>
<path d="M1610 1130 c0 -14 62 -20 217 -20 131 0 154 2 144 14 -9 10 -50 13
-186 14 -96 0 -175 -4 -175 -8z"/>
<path d="M32 1053 c3 -15 13 -18 63 -18 47 0 60 3 60 15 0 11 -15 16 -63 18
-57 3 -63 1 -60 -15z"/>
<path d="M654 1059 c-12 -20 13 -30 67 -27 42 2 55 7 57 21 3 15 -5 17 -57 17
-33 0 -63 -5 -67 -11z"/>
<path d="M870 1062 c0 -20 28 -29 90 -28 51 1 65 4 65 16 0 12 -17 16 -77 18
-43 2 -78 -1 -78 -6z"/>
<path d="M1275 1060 c-12 -19 3 -25 63 -25 44 0 57 3 57 15 0 19 -109 28 -120
10z"/>
<path d="M1535 1060 c-9 -15 4 -30 25 -30 24 0 36 20 19 31 -19 12 -36 11 -44
-1z"/>
<path d="M1862 1054 c19 -19 106 -30 127 -16 28 19 -1 32 -72 32 -66 0 -70 -1
-55 -16z"/>
<path d="M478 1033 c6 -2 18 -2 25 0 6 3 1 5 -13 5 -14 0 -19 -2 -12 -5z"/>
<path d="M52 988 c3 -9 31 -14 83 -16 70 -3 77 -1 65 13 -16 20 -154 22 -148
3z"/>
<path d="M420 985 c-11 -13 -6 -15 33 -15 27 0 49 6 57 15 11 13 6 15 -33 15
-27 0 -49 -6 -57 -15z"/>
<path d="M650 985 c0 -12 14 -15 65 -15 51 0 65 3 65 15 0 12 -14 15 -65 15
-51 0 -65 -3 -65 -15z"/>
<path d="M922 988 c3 -9 33 -14 92 -16 80 -3 87 -1 73 13 -20 20 -171 22 -165
3z"/>
<path d="M1270 985 c0 -12 14 -15 65 -15 51 0 65 3 65 15 0 12 -14 15 -65 15
-51 0 -65 -3 -65 -15z"/>
<path d="M1546 985 c5 -11 21 -15 61 -15 48 0 54 2 43 15 -8 10 -30 15 -61 15
-39 0 -47 -3 -43 -15z"/>
<path d="M1880 985 c0 -11 12 -15 50 -15 38 0 50 4 50 15 0 11 -12 15 -50 15
-38 0 -50 -4 -50 -15z"/>
<path d="M110 929 c0 -21 48 -29 167 -29 136 0 169 5 176 24 4 9 -39 12 -169
13 -96 0 -174 -3 -174 -8z"/>
<path d="M593 934 c-39 -16 2 -24 123 -24 104 0 135 3 132 13 -3 8 -39 13
-124 14 -65 1 -125 -1 -131 -3z"/>
<path d="M970 926 c0 -21 32 -28 120 -24 59 2 75 6 75 18 0 12 -19 16 -97 18
-82 2 -98 0 -98 -12z"/>
<path d="M1201 926 c-19 -22 13 -27 149 -24 94 2 115 6 115 18 0 22 -246 28
-264 6z"/>
<path d="M1572 923 c3 -16 20 -18 166 -21 156 -2 202 4 202 28 0 6 -73 10
-186 10 -171 0 -185 -1 -182 -17z"/>
<path d="M248 853 c18 -2 45 -2 60 0 15 2 0 4 -33 4 -33 0 -45 -2 -27 -4z"/>
<path d="M1743 853 c20 -2 54 -2 75 0 20 2 3 4 -38 4 -41 0 -58 -2 -37 -4z"/>
<path d="M438 793 c7 -3 16 -2 19 1 4 3 -2 6 -13 5 -11 0 -14 -3 -6 -6z"/>
<path d="M947 759 c8 -8 16 -8 30 0 16 9 14 10 -11 11 -22 0 -27 -3 -19 -11z"/>
<path d="M1070 757 c14 -7 27 -10 30 -7 3 4 12 10 20 13 8 3 -5 6 -30 6 -43 1
-44 0 -20 -12z"/>
<path d="M381 734 c0 -11 3 -14 6 -6 3 7 2 16 -1 19 -3 4 -6 -2 -5 -13z"/>
<path d="M42 726 c7 -8 15 -12 17 -11 5 6 -10 25 -20 25 -5 0 -4 -6 3 -14z"/>
<path d="M108 710 c2 -16 6 -30 8 -30 2 0 4 14 4 30 0 17 -4 30 -8 30 -5 0 -7
-13 -4 -30z"/>
<path d="M168 710 c2 -16 6 -30 8 -30 2 0 4 14 4 30 0 17 -4 30 -8 30 -5 0 -7
-13 -4 -30z"/>
<path d="M296 732 c7 -4 14 -18 17 -32 4 -21 4 -20 6 8 1 24 -3 32 -16 32 -12
0 -14 -3 -7 -8z"/>
<path d="M435 730 c3 -5 8 -10 11 -10 2 0 4 5 4 10 0 6 -5 10 -11 10 -5 0 -7
-4 -4 -10z"/>
<path d="M598 710 c2 -16 6 -30 8 -30 2 0 4 14 4 30 0 17 -4 30 -8 30 -5 0 -7
-13 -4 -30z"/>
<path d="M782 733 c9 -2 19 -14 21 -26 4 -18 5 -17 6 6 1 22 -3 27 -21 26 -16
-1 -18 -3 -6 -6z"/>
<path d="M952 710 c0 -19 2 -27 5 -17 2 9 2 25 0 35 -3 9 -5 1 -5 -18z"/>
<path d="M1242 710 c0 -19 2 -27 5 -17 2 9 2 25 0 35 -3 9 -5 1 -5 -18z"/>
<path d="M1303 705 c0 -22 2 -30 4 -17 2 12 2 30 0 40 -3 9 -5 -1 -4 -23z"/>
<path d="M1422 733 c9 -2 19 -12 21 -21 3 -12 5 -10 6 6 1 17 -4 22 -21 21
-16 -1 -18 -3 -6 -6z"/>
<path d="M1576 733 c6 -4 14 -15 17 -23 5 -11 6 -9 4 4 -1 11 -9 21 -17 23
-10 3 -11 2 -4 -4z"/>
<path d="M1716 733 c6 -4 14 -15 17 -23 5 -11 6 -9 4 4 -1 11 -9 21 -17 23
-10 3 -11 2 -4 -4z"/>
<path d="M1810 736 c0 -2 7 -6 15 -10 8 -3 15 -1 15 4 0 6 -7 10 -15 10 -8 0
-15 -2 -15 -4z"/>
<path d="M1967 720 c3 -11 7 -20 9 -20 2 0 4 9 4 20 0 11 -4 20 -9 20 -5 0 -7
-9 -4 -20z"/>
<path d="M1648 724 c-3 -5 -2 -18 2 -28 5 -16 8 -17 12 -4 7 16 -7 45 -14 32z"/>
<path d="M1513 699 c-2 -23 3 -25 10 -4 4 8 3 16 -1 19 -4 3 -9 -4 -9 -15z"/>
<path d="M662 690 c0 -14 2 -19 5 -12 2 6 2 18 0 25 -3 6 -5 1 -5 -13z"/>
<path d="M1071 694 c0 -11 3 -14 6 -6 3 7 2 16 -1 19 -3 4 -6 -2 -5 -13z"/>
<path d="M1771 672 c0 -16 3 -21 6 -12 3 8 10 18 15 21 5 3 3 9 -6 12 -12 5
-16 0 -15 -21z"/>
<path d="M1901 684 c0 -11 3 -14 6 -6 3 7 2 16 -1 19 -3 4 -6 -2 -5 -13z"/>
<path d="M231 668 c-1 -21 4 -28 17 -28 11 0 13 3 6 8 -7 4 -14 16 -17 27 -4
15 -5 14 -6 -7z"/>
<path d="M372 665 c0 -16 2 -22 5 -12 2 9 2 23 0 30 -3 6 -5 -1 -5 -18z"/>
<path d="M722 665 c0 -16 2 -22 5 -12 2 9 2 23 0 30 -3 6 -5 -1 -5 -18z"/>
<path d="M32 660 c0 -14 2 -19 5 -12 2 6 2 18 0 25 -3 6 -5 1 -5 -13z"/>
<path d="M512 660 c0 -14 2 -19 5 -12 2 6 2 18 0 25 -3 6 -5 1 -5 -13z"/>
<path d="M1421 663 c-1 -16 5 -23 17 -23 10 0 13 3 6 8 -6 4 -14 14 -17 22 -4
10 -6 8 -6 -7z"/>
<path d="M581 654 c0 -11 3 -14 6 -6 3 7 2 16 -1 19 -3 4 -6 -2 -5 -13z"/>
<path d="M1360 655 c0 -8 4 -15 10 -15 5 0 7 7 4 15 -4 8 -8 15 -10 15 -2 0
-4 -7 -4 -15z"/>
<path d="M1960 655 c0 -8 4 -15 10 -15 5 0 7 7 4 15 -4 8 -8 15 -10 15 -2 0
-4 -7 -4 -15z"/>
<path d="M782 640 c0 -14 2 -19 5 -12 2 6 2 18 0 25 -3 6 -5 1 -5 -13z"/>
<path d="M913 643 c9 -2 23 -2 30 0 6 3 -1 5 -18 5 -16 0 -22 -2 -12 -5z"/>
<path d="M1048 643 c6 -2 18 -2 25 0 6 3 1 5 -13 5 -14 0 -19 -2 -12 -5z"/>
<path d="M1500 633 c0 -11 3 -14 8 -7 4 6 14 14 22 17 10 4 8 6 -7 6 -16 1
-23 -5 -23 -16z"/>
<path d="M1640 633 c0 -11 3 -14 8 -7 4 6 14 14 22 17 10 4 8 6 -7 6 -16 1
-23 -5 -23 -16z"/>
<path d="M1798 643 c7 -3 16 -2 19 1 4 3 -2 6 -13 5 -11 0 -14 -3 -6 -6z"/>
<path d="M718 583 c6 -2 18 -2 25 0 6 3 1 5 -13 5 -14 0 -19 -2 -12 -5z"/>
</g>
</svg>
